<mxfile host="app.diagrams.net" modified="2022-11-01T13:27:57.073Z" agent="5.0 (Windows NT 10.0; Win64; x64) AppleWebKit/537.36 (KHTML, like Gecko) Chrome/107.0.0.0 Safari/537.36" etag="rDlcnljaRWCiHA61qLFS" version="20.5.1" type="github">
  <diagram id="C5RBs43oDa-KdzZeNtuy" name="Page-1">
    <mxGraphModel dx="3779" dy="3062" grid="1" gridSize="10" guides="1" tooltips="1" connect="1" arrows="1" fold="1" page="1" pageScale="1" pageWidth="827" pageHeight="1169" math="0" shadow="0">
      <root>
        <mxCell id="WIyWlLk6GJQsqaUBKTNV-0" />
        <mxCell id="WIyWlLk6GJQsqaUBKTNV-1" parent="WIyWlLk6GJQsqaUBKTNV-0" />
        <mxCell id="XsQhDETff7rVI9MwzLAx-0" value="GameManager" style="swimlane;fontStyle=1;align=center;verticalAlign=top;childLayout=stackLayout;horizontal=1;startSize=26;horizontalStack=0;resizeParent=1;resizeLast=0;collapsible=1;marginBottom=0;rounded=0;shadow=0;strokeWidth=1;fillColor=#a20025;strokeColor=#6F0000;sketch=0;fontColor=#ffffff;" vertex="1" parent="WIyWlLk6GJQsqaUBKTNV-1">
          <mxGeometry x="199" y="-247" width="430" height="207" as="geometry">
            <mxRectangle x="150" y="90" width="160" height="26" as="alternateBounds" />
          </mxGeometry>
        </mxCell>
        <mxCell id="XsQhDETff7rVI9MwzLAx-1" value="+ &lt;&lt;Get&gt;&gt; Instance : GameManager" style="text;align=left;verticalAlign=top;spacingLeft=4;spacingRight=4;overflow=hidden;rotatable=0;points=[[0,0.5],[1,0.5]];portConstraint=eastwest;rounded=0;shadow=0;html=0;fontStyle=4;fillColor=#a20025;strokeColor=#6F0000;sketch=0;fontColor=#ffffff;" vertex="1" parent="XsQhDETff7rVI9MwzLAx-0">
          <mxGeometry y="26" width="430" height="26" as="geometry" />
        </mxCell>
        <mxCell id="XsQhDETff7rVI9MwzLAx-2" value="+ &lt;&lt;Get&gt;&gt; LevelManager : LevelManager" style="text;align=left;verticalAlign=top;spacingLeft=4;spacingRight=4;overflow=hidden;rotatable=0;points=[[0,0.5],[1,0.5]];portConstraint=eastwest;fontStyle=0;fillColor=#a20025;strokeColor=#6F0000;shadow=0;sketch=0;fontColor=#ffffff;" vertex="1" parent="XsQhDETff7rVI9MwzLAx-0">
          <mxGeometry y="52" width="430" height="26" as="geometry" />
        </mxCell>
        <mxCell id="XsQhDETff7rVI9MwzLAx-3" value="+ &lt;&lt;Get&gt;&gt; SaveLoader: SaveLoadManager" style="text;align=left;verticalAlign=top;spacingLeft=4;spacingRight=4;overflow=hidden;rotatable=0;points=[[0,0.5],[1,0.5]];portConstraint=eastwest;rounded=0;shadow=0;html=0;fillColor=#a20025;strokeColor=#6F0000;sketch=0;fontColor=#ffffff;" vertex="1" parent="XsQhDETff7rVI9MwzLAx-0">
          <mxGeometry y="78" width="430" height="26" as="geometry" />
        </mxCell>
        <mxCell id="XsQhDETff7rVI9MwzLAx-4" value="+ &lt;&lt;Get&gt;&gt; ScreenManager: ScreenManager" style="text;align=left;verticalAlign=top;spacingLeft=4;spacingRight=4;overflow=hidden;rotatable=0;points=[[0,0.5],[1,0.5]];portConstraint=eastwest;rounded=0;shadow=0;html=0;fillColor=#a20025;strokeColor=#6F0000;sketch=0;fontColor=#ffffff;" vertex="1" parent="XsQhDETff7rVI9MwzLAx-0">
          <mxGeometry y="104" width="430" height="26" as="geometry" />
        </mxCell>
        <mxCell id="XsQhDETff7rVI9MwzLAx-5" value="" style="line;html=1;strokeWidth=1;align=left;verticalAlign=middle;spacingTop=-1;spacingLeft=3;spacingRight=3;rotatable=0;labelPosition=right;points=[];portConstraint=eastwest;fillColor=#a20025;strokeColor=#6F0000;shadow=0;sketch=0;fontColor=#ffffff;" vertex="1" parent="XsQhDETff7rVI9MwzLAx-0">
          <mxGeometry y="130" width="430" height="8" as="geometry" />
        </mxCell>
        <mxCell id="XsQhDETff7rVI9MwzLAx-6" value="+ StartNewGame() : void" style="text;align=left;verticalAlign=top;spacingLeft=4;spacingRight=4;overflow=hidden;rotatable=0;points=[[0,0.5],[1,0.5]];portConstraint=eastwest;fillColor=#a20025;strokeColor=#6F0000;shadow=0;sketch=0;fontColor=#ffffff;" vertex="1" parent="XsQhDETff7rVI9MwzLAx-0">
          <mxGeometry y="138" width="430" height="26" as="geometry" />
        </mxCell>
        <mxCell id="XsQhDETff7rVI9MwzLAx-7" value="+ FinishLevel() : void" style="text;align=left;verticalAlign=top;spacingLeft=4;spacingRight=4;overflow=hidden;rotatable=0;points=[[0,0.5],[1,0.5]];portConstraint=eastwest;fillColor=#a20025;strokeColor=#6F0000;shadow=0;sketch=0;fontColor=#ffffff;" vertex="1" parent="XsQhDETff7rVI9MwzLAx-0">
          <mxGeometry y="164" width="430" height="26" as="geometry" />
        </mxCell>
        <mxCell id="XsQhDETff7rVI9MwzLAx-8" value="ScreenManager" style="swimlane;fontStyle=1;align=center;verticalAlign=top;childLayout=stackLayout;horizontal=1;startSize=26;horizontalStack=0;resizeParent=1;resizeParentMax=0;resizeLast=0;collapsible=1;marginBottom=0;fillColor=#bac8d3;strokeColor=#23445d;" vertex="1" parent="WIyWlLk6GJQsqaUBKTNV-1">
          <mxGeometry x="871" y="-166" width="370" height="230" as="geometry" />
        </mxCell>
        <mxCell id="XsQhDETff7rVI9MwzLAx-9" value="- startScreen: StartScreen" style="text;strokeColor=#23445d;fillColor=#bac8d3;align=left;verticalAlign=top;spacingLeft=4;spacingRight=4;overflow=hidden;rotatable=0;points=[[0,0.5],[1,0.5]];portConstraint=eastwest;" vertex="1" parent="XsQhDETff7rVI9MwzLAx-8">
          <mxGeometry y="26" width="370" height="24" as="geometry" />
        </mxCell>
        <mxCell id="XsQhDETff7rVI9MwzLAx-10" value="- gamePlayScreen: GamePlayScreen" style="text;strokeColor=#23445d;fillColor=#bac8d3;align=left;verticalAlign=top;spacingLeft=4;spacingRight=4;overflow=hidden;rotatable=0;points=[[0,0.5],[1,0.5]];portConstraint=eastwest;" vertex="1" parent="XsQhDETff7rVI9MwzLAx-8">
          <mxGeometry y="50" width="370" height="26" as="geometry" />
        </mxCell>
        <mxCell id="XsQhDETff7rVI9MwzLAx-11" value="- finishScreen:  FinishScreen" style="text;strokeColor=#23445d;fillColor=#bac8d3;align=left;verticalAlign=top;spacingLeft=4;spacingRight=4;overflow=hidden;rotatable=0;points=[[0,0.5],[1,0.5]];portConstraint=eastwest;" vertex="1" parent="XsQhDETff7rVI9MwzLAx-8">
          <mxGeometry y="76" width="370" height="26" as="geometry" />
        </mxCell>
        <mxCell id="XsQhDETff7rVI9MwzLAx-12" value="" style="line;strokeWidth=1;fillColor=#bac8d3;align=left;verticalAlign=middle;spacingTop=-1;spacingLeft=3;spacingRight=3;rotatable=0;labelPosition=right;points=[];portConstraint=eastwest;strokeColor=#23445d;" vertex="1" parent="XsQhDETff7rVI9MwzLAx-8">
          <mxGeometry y="102" width="370" height="8" as="geometry" />
        </mxCell>
        <mxCell id="XsQhDETff7rVI9MwzLAx-13" value="+ Init() : void" style="text;strokeColor=#23445d;fillColor=#bac8d3;align=left;verticalAlign=top;spacingLeft=4;spacingRight=4;overflow=hidden;rotatable=0;points=[[0,0.5],[1,0.5]];portConstraint=eastwest;" vertex="1" parent="XsQhDETff7rVI9MwzLAx-8">
          <mxGeometry y="110" width="370" height="24" as="geometry" />
        </mxCell>
        <mxCell id="XsQhDETff7rVI9MwzLAx-14" value="+ OpenStartScreen() : void" style="text;strokeColor=#23445d;fillColor=#bac8d3;align=left;verticalAlign=top;spacingLeft=4;spacingRight=4;overflow=hidden;rotatable=0;points=[[0,0.5],[1,0.5]];portConstraint=eastwest;" vertex="1" parent="XsQhDETff7rVI9MwzLAx-8">
          <mxGeometry y="134" width="370" height="24" as="geometry" />
        </mxCell>
        <mxCell id="XsQhDETff7rVI9MwzLAx-15" value="+ OpenGamePlayScreen() : void" style="text;strokeColor=#23445d;fillColor=#bac8d3;align=left;verticalAlign=top;spacingLeft=4;spacingRight=4;overflow=hidden;rotatable=0;points=[[0,0.5],[1,0.5]];portConstraint=eastwest;" vertex="1" parent="XsQhDETff7rVI9MwzLAx-8">
          <mxGeometry y="158" width="370" height="24" as="geometry" />
        </mxCell>
        <mxCell id="XsQhDETff7rVI9MwzLAx-16" value="+ OpenFinishScreen() : void" style="text;strokeColor=#23445d;fillColor=#bac8d3;align=left;verticalAlign=top;spacingLeft=4;spacingRight=4;overflow=hidden;rotatable=0;points=[[0,0.5],[1,0.5]];portConstraint=eastwest;" vertex="1" parent="XsQhDETff7rVI9MwzLAx-8">
          <mxGeometry y="182" width="370" height="24" as="geometry" />
        </mxCell>
        <mxCell id="XsQhDETff7rVI9MwzLAx-17" value="+ HideAllScreens() : void" style="text;strokeColor=#23445d;fillColor=#bac8d3;align=left;verticalAlign=top;spacingLeft=4;spacingRight=4;overflow=hidden;rotatable=0;points=[[0,0.5],[1,0.5]];portConstraint=eastwest;" vertex="1" parent="XsQhDETff7rVI9MwzLAx-8">
          <mxGeometry y="206" width="370" height="24" as="geometry" />
        </mxCell>
        <mxCell id="XsQhDETff7rVI9MwzLAx-18" value="GamePlayScreen" style="swimlane;fontStyle=1;align=center;verticalAlign=top;childLayout=stackLayout;horizontal=1;startSize=26;horizontalStack=0;resizeParent=1;resizeParentMax=0;resizeLast=0;collapsible=1;marginBottom=0;fillColor=#bac8d3;strokeColor=#23445d;" vertex="1" parent="WIyWlLk6GJQsqaUBKTNV-1">
          <mxGeometry x="1410" y="-150" width="370" height="34" as="geometry" />
        </mxCell>
        <mxCell id="XsQhDETff7rVI9MwzLAx-19" value="" style="line;strokeWidth=1;fillColor=#bac8d3;align=left;verticalAlign=middle;spacingTop=-1;spacingLeft=3;spacingRight=3;rotatable=0;labelPosition=right;points=[];portConstraint=eastwest;strokeColor=#23445d;" vertex="1" parent="XsQhDETff7rVI9MwzLAx-18">
          <mxGeometry y="26" width="370" height="8" as="geometry" />
        </mxCell>
        <mxCell id="XsQhDETff7rVI9MwzLAx-20" value="Extends" style="endArrow=block;endSize=16;endFill=0;html=1;rounded=0;exitX=1;exitY=0.5;exitDx=0;exitDy=0;entryX=0;entryY=0.5;entryDx=0;entryDy=0;fillColor=#bac8d3;strokeColor=#23445d;" edge="1" parent="WIyWlLk6GJQsqaUBKTNV-1" source="XsQhDETff7rVI9MwzLAx-18">
          <mxGeometry width="160" relative="1" as="geometry">
            <mxPoint x="909" y="370" as="sourcePoint" />
            <mxPoint x="2020" y="-160" as="targetPoint" />
          </mxGeometry>
        </mxCell>
        <mxCell id="XsQhDETff7rVI9MwzLAx-21" value="StartScreen" style="swimlane;fontStyle=1;align=center;verticalAlign=top;childLayout=stackLayout;horizontal=1;startSize=26;horizontalStack=0;resizeParent=1;resizeParentMax=0;resizeLast=0;collapsible=1;marginBottom=0;fillColor=#bac8d3;strokeColor=#23445d;" vertex="1" parent="WIyWlLk6GJQsqaUBKTNV-1">
          <mxGeometry x="1390" y="-430" width="370" height="130" as="geometry" />
        </mxCell>
        <mxCell id="XsQhDETff7rVI9MwzLAx-22" value="- blackImage : AlphaReducerImage" style="text;strokeColor=#23445d;fillColor=#bac8d3;align=left;verticalAlign=top;spacingLeft=4;spacingRight=4;overflow=hidden;rotatable=0;points=[[0,0.5],[1,0.5]];portConstraint=eastwest;" vertex="1" parent="XsQhDETff7rVI9MwzLAx-21">
          <mxGeometry y="26" width="370" height="24" as="geometry" />
        </mxCell>
        <mxCell id="XsQhDETff7rVI9MwzLAx-23" value="- gameManager : GameManager" style="text;strokeColor=#23445d;fillColor=#bac8d3;align=left;verticalAlign=top;spacingLeft=4;spacingRight=4;overflow=hidden;rotatable=0;points=[[0,0.5],[1,0.5]];portConstraint=eastwest;" vertex="1" parent="XsQhDETff7rVI9MwzLAx-21">
          <mxGeometry y="50" width="370" height="24" as="geometry" />
        </mxCell>
        <mxCell id="XsQhDETff7rVI9MwzLAx-24" value="" style="line;strokeWidth=1;fillColor=#bac8d3;align=left;verticalAlign=middle;spacingTop=-1;spacingLeft=3;spacingRight=3;rotatable=0;labelPosition=right;points=[];portConstraint=eastwest;strokeColor=#23445d;" vertex="1" parent="XsQhDETff7rVI9MwzLAx-21">
          <mxGeometry y="74" width="370" height="8" as="geometry" />
        </mxCell>
        <mxCell id="XsQhDETff7rVI9MwzLAx-25" value="+ StartReduceImage() : void" style="text;strokeColor=#23445d;fillColor=#bac8d3;align=left;verticalAlign=top;spacingLeft=4;spacingRight=4;overflow=hidden;rotatable=0;points=[[0,0.5],[1,0.5]];portConstraint=eastwest;" vertex="1" parent="XsQhDETff7rVI9MwzLAx-21">
          <mxGeometry y="82" width="370" height="24" as="geometry" />
        </mxCell>
        <mxCell id="XsQhDETff7rVI9MwzLAx-26" value="+ OnEndImageReduce() : void" style="text;strokeColor=#23445d;fillColor=#bac8d3;align=left;verticalAlign=top;spacingLeft=4;spacingRight=4;overflow=hidden;rotatable=0;points=[[0,0.5],[1,0.5]];portConstraint=eastwest;" vertex="1" parent="XsQhDETff7rVI9MwzLAx-21">
          <mxGeometry y="106" width="370" height="24" as="geometry" />
        </mxCell>
        <mxCell id="XsQhDETff7rVI9MwzLAx-27" value="FinishScreen" style="swimlane;fontStyle=1;align=center;verticalAlign=top;childLayout=stackLayout;horizontal=1;startSize=26;horizontalStack=0;resizeParent=1;resizeParentMax=0;resizeLast=0;collapsible=1;marginBottom=0;fillColor=#bac8d3;strokeColor=#23445d;" vertex="1" parent="WIyWlLk6GJQsqaUBKTNV-1">
          <mxGeometry x="1410" y="30" width="370" height="34" as="geometry" />
        </mxCell>
        <mxCell id="XsQhDETff7rVI9MwzLAx-28" value="" style="line;strokeWidth=1;fillColor=#bac8d3;align=left;verticalAlign=middle;spacingTop=-1;spacingLeft=3;spacingRight=3;rotatable=0;labelPosition=right;points=[];portConstraint=eastwest;strokeColor=#23445d;" vertex="1" parent="XsQhDETff7rVI9MwzLAx-27">
          <mxGeometry y="26" width="370" height="8" as="geometry" />
        </mxCell>
        <mxCell id="XsQhDETff7rVI9MwzLAx-29" value="Extends" style="endArrow=block;endSize=16;endFill=0;html=1;rounded=0;exitX=1;exitY=0.5;exitDx=0;exitDy=0;entryX=0;entryY=0.5;entryDx=0;entryDy=0;fillColor=#bac8d3;strokeColor=#23445d;" edge="1" parent="WIyWlLk6GJQsqaUBKTNV-1" source="XsQhDETff7rVI9MwzLAx-25">
          <mxGeometry width="160" relative="1" as="geometry">
            <mxPoint x="1079" y="427.00800000000004" as="sourcePoint" />
            <mxPoint x="2020" y="-168" as="targetPoint" />
          </mxGeometry>
        </mxCell>
        <mxCell id="XsQhDETff7rVI9MwzLAx-30" value="Extends" style="endArrow=block;endSize=16;endFill=0;html=1;rounded=0;entryX=0;entryY=0.5;entryDx=0;entryDy=0;exitX=1;exitY=0.5;exitDx=0;exitDy=0;fillColor=#bac8d3;strokeColor=#23445d;" edge="1" parent="WIyWlLk6GJQsqaUBKTNV-1" source="XsQhDETff7rVI9MwzLAx-27">
          <mxGeometry width="160" relative="1" as="geometry">
            <mxPoint x="1629" y="410" as="sourcePoint" />
            <mxPoint x="2020" y="-136" as="targetPoint" />
          </mxGeometry>
        </mxCell>
        <mxCell id="XsQhDETff7rVI9MwzLAx-31" value="" style="endArrow=open;endFill=1;endSize=12;html=1;rounded=0;exitX=1;exitY=0.5;exitDx=0;exitDy=0;fillColor=#bac8d3;strokeColor=#23445d;" edge="1" parent="WIyWlLk6GJQsqaUBKTNV-1" source="XsQhDETff7rVI9MwzLAx-13">
          <mxGeometry width="160" relative="1" as="geometry">
            <mxPoint x="979" y="660" as="sourcePoint" />
            <mxPoint x="1410" y="-133" as="targetPoint" />
          </mxGeometry>
        </mxCell>
        <mxCell id="XsQhDETff7rVI9MwzLAx-32" value="" style="endArrow=open;endFill=1;endSize=12;html=1;rounded=0;entryX=0;entryY=0.5;entryDx=0;entryDy=0;exitX=1;exitY=0.5;exitDx=0;exitDy=0;fillColor=#bac8d3;strokeColor=#23445d;" edge="1" parent="WIyWlLk6GJQsqaUBKTNV-1" source="XsQhDETff7rVI9MwzLAx-10" target="XsQhDETff7rVI9MwzLAx-25">
          <mxGeometry width="160" relative="1" as="geometry">
            <mxPoint x="1065" y="-280" as="sourcePoint" />
            <mxPoint x="919.7799999999997" y="461.664" as="targetPoint" />
          </mxGeometry>
        </mxCell>
        <mxCell id="XsQhDETff7rVI9MwzLAx-33" value="" style="endArrow=open;endFill=1;endSize=12;html=1;rounded=0;entryX=0.114;entryY=-0.059;entryDx=0;entryDy=0;entryPerimeter=0;exitX=1;exitY=0.5;exitDx=0;exitDy=0;fillColor=#bac8d3;strokeColor=#23445d;" edge="1" parent="WIyWlLk6GJQsqaUBKTNV-1" source="XsQhDETff7rVI9MwzLAx-14" target="XsQhDETff7rVI9MwzLAx-27">
          <mxGeometry width="160" relative="1" as="geometry">
            <mxPoint x="1284" y="600" as="sourcePoint" />
            <mxPoint x="1211.8000000000002" y="464.336" as="targetPoint" />
          </mxGeometry>
        </mxCell>
        <mxCell id="XsQhDETff7rVI9MwzLAx-34" value="" style="endArrow=open;endFill=1;endSize=12;html=1;rounded=0;entryX=0;entryY=0.5;entryDx=0;entryDy=0;exitX=1;exitY=0.5;exitDx=0;exitDy=0;" edge="1" parent="WIyWlLk6GJQsqaUBKTNV-1" source="XsQhDETff7rVI9MwzLAx-4" target="XsQhDETff7rVI9MwzLAx-13">
          <mxGeometry width="160" relative="1" as="geometry">
            <mxPoint x="675" y="630" as="sourcePoint" />
            <mxPoint x="848" y="464" as="targetPoint" />
          </mxGeometry>
        </mxCell>
        <mxCell id="XsQhDETff7rVI9MwzLAx-35" value="LevelManager" style="swimlane;fontStyle=1;align=center;verticalAlign=top;childLayout=stackLayout;horizontal=1;startSize=26;horizontalStack=0;resizeParent=1;resizeParentMax=0;resizeLast=0;collapsible=1;marginBottom=0;fillColor=#e1d5e7;strokeColor=#9673a6;" vertex="1" parent="WIyWlLk6GJQsqaUBKTNV-1">
          <mxGeometry x="360" y="190" width="370" height="108" as="geometry" />
        </mxCell>
        <mxCell id="XsQhDETff7rVI9MwzLAx-36" value="+ &lt;&lt;Get&gt;&gt;  -&lt;&lt;Set&gt;&gt; CurrentLevel: LevelController" style="text;strokeColor=#9673a6;fillColor=#e1d5e7;align=left;verticalAlign=top;spacingLeft=4;spacingRight=4;overflow=hidden;rotatable=0;points=[[0,0.5],[1,0.5]];portConstraint=eastwest;" vertex="1" parent="XsQhDETff7rVI9MwzLAx-35">
          <mxGeometry y="26" width="370" height="24" as="geometry" />
        </mxCell>
        <mxCell id="XsQhDETff7rVI9MwzLAx-37" value="+ &lt;&lt;Get&gt;&gt;  -&lt;&lt;Set&gt;&gt; CurrentLevelIndex: int" style="text;strokeColor=#9673a6;fillColor=#e1d5e7;align=left;verticalAlign=top;spacingLeft=4;spacingRight=4;overflow=hidden;rotatable=0;points=[[0,0.5],[1,0.5]];portConstraint=eastwest;" vertex="1" parent="XsQhDETff7rVI9MwzLAx-35">
          <mxGeometry y="50" width="370" height="26" as="geometry" />
        </mxCell>
        <mxCell id="XsQhDETff7rVI9MwzLAx-38" value="" style="line;strokeWidth=1;fillColor=#e1d5e7;align=left;verticalAlign=middle;spacingTop=-1;spacingLeft=3;spacingRight=3;rotatable=0;labelPosition=right;points=[];portConstraint=eastwest;strokeColor=#9673a6;" vertex="1" parent="XsQhDETff7rVI9MwzLAx-35">
          <mxGeometry y="76" width="370" height="8" as="geometry" />
        </mxCell>
        <mxCell id="XsQhDETff7rVI9MwzLAx-39" value="+ LoadLevel() : void" style="text;strokeColor=#9673a6;fillColor=#e1d5e7;align=left;verticalAlign=top;spacingLeft=4;spacingRight=4;overflow=hidden;rotatable=0;points=[[0,0.5],[1,0.5]];portConstraint=eastwest;" vertex="1" parent="XsQhDETff7rVI9MwzLAx-35">
          <mxGeometry y="84" width="370" height="24" as="geometry" />
        </mxCell>
        <mxCell id="XsQhDETff7rVI9MwzLAx-40" value="" style="endArrow=open;endFill=1;endSize=12;html=1;rounded=0;entryX=0.5;entryY=0;entryDx=0;entryDy=0;exitX=0.5;exitY=1;exitDx=0;exitDy=0;" edge="1" parent="WIyWlLk6GJQsqaUBKTNV-1" source="XsQhDETff7rVI9MwzLAx-0" target="XsQhDETff7rVI9MwzLAx-35">
          <mxGeometry width="160" relative="1" as="geometry">
            <mxPoint x="321.3499999999999" y="317.66599999999994" as="sourcePoint" />
            <mxPoint x="675" y="630" as="targetPoint" />
          </mxGeometry>
        </mxCell>
        <mxCell id="XsQhDETff7rVI9MwzLAx-41" value="AlphaReducerImage" style="swimlane;fontStyle=1;align=center;verticalAlign=top;childLayout=stackLayout;horizontal=1;startSize=26;horizontalStack=0;resizeParent=1;resizeParentMax=0;resizeLast=0;collapsible=1;marginBottom=0;fillColor=#bac8d3;strokeColor=#23445d;" vertex="1" parent="WIyWlLk6GJQsqaUBKTNV-1">
          <mxGeometry x="1830" y="-600" width="370" height="132" as="geometry" />
        </mxCell>
        <mxCell id="XsQhDETff7rVI9MwzLAx-42" value="- image: Image" style="text;strokeColor=#23445d;fillColor=#bac8d3;align=left;verticalAlign=top;spacingLeft=4;spacingRight=4;overflow=hidden;rotatable=0;points=[[0,0.5],[1,0.5]];portConstraint=eastwest;" vertex="1" parent="XsQhDETff7rVI9MwzLAx-41">
          <mxGeometry y="26" width="370" height="24" as="geometry" />
        </mxCell>
        <mxCell id="XsQhDETff7rVI9MwzLAx-43" value="- reduceDuration: float" style="text;strokeColor=#23445d;fillColor=#bac8d3;align=left;verticalAlign=top;spacingLeft=4;spacingRight=4;overflow=hidden;rotatable=0;points=[[0,0.5],[1,0.5]];portConstraint=eastwest;" vertex="1" parent="XsQhDETff7rVI9MwzLAx-41">
          <mxGeometry y="50" width="370" height="26" as="geometry" />
        </mxCell>
        <mxCell id="XsQhDETff7rVI9MwzLAx-44" value="" style="line;strokeWidth=1;fillColor=#bac8d3;align=left;verticalAlign=middle;spacingTop=-1;spacingLeft=3;spacingRight=3;rotatable=0;labelPosition=right;points=[];portConstraint=eastwest;strokeColor=#23445d;" vertex="1" parent="XsQhDETff7rVI9MwzLAx-41">
          <mxGeometry y="76" width="370" height="8" as="geometry" />
        </mxCell>
        <mxCell id="XsQhDETff7rVI9MwzLAx-45" value="+ StartReduce() : void" style="text;strokeColor=#23445d;fillColor=#bac8d3;align=left;verticalAlign=top;spacingLeft=4;spacingRight=4;overflow=hidden;rotatable=0;points=[[0,0.5],[1,0.5]];portConstraint=eastwest;" vertex="1" parent="XsQhDETff7rVI9MwzLAx-41">
          <mxGeometry y="84" width="370" height="24" as="geometry" />
        </mxCell>
        <mxCell id="XsQhDETff7rVI9MwzLAx-46" value="- DoReduce() : IEnumerator" style="text;strokeColor=#23445d;fillColor=#bac8d3;align=left;verticalAlign=top;spacingLeft=4;spacingRight=4;overflow=hidden;rotatable=0;points=[[0,0.5],[1,0.5]];portConstraint=eastwest;" vertex="1" parent="XsQhDETff7rVI9MwzLAx-41">
          <mxGeometry y="108" width="370" height="24" as="geometry" />
        </mxCell>
        <mxCell id="XsQhDETff7rVI9MwzLAx-47" value="" style="endArrow=open;endFill=1;endSize=12;html=1;rounded=0;entryX=0.497;entryY=1.167;entryDx=0;entryDy=0;exitX=1.002;exitY=0.117;exitDx=0;exitDy=0;exitPerimeter=0;entryPerimeter=0;fillColor=#bac8d3;strokeColor=#23445d;" edge="1" parent="WIyWlLk6GJQsqaUBKTNV-1" source="XsQhDETff7rVI9MwzLAx-25" target="XsQhDETff7rVI9MwzLAx-46">
          <mxGeometry width="160" relative="1" as="geometry">
            <mxPoint x="1210" y="530" as="sourcePoint" />
            <mxPoint x="1354.5900000000001" y="538.808" as="targetPoint" />
          </mxGeometry>
        </mxCell>
        <mxCell id="XsQhDETff7rVI9MwzLAx-48" value="&amp;lt;&amp;lt;StartGamePlay&amp;gt;&amp;gt;" style="endArrow=open;endFill=1;endSize=12;html=1;rounded=0;entryX=1;entryY=0.5;entryDx=0;entryDy=0;exitX=0;exitY=0.25;exitDx=0;exitDy=0;fontSize=14;verticalAlign=middle;" edge="1" parent="WIyWlLk6GJQsqaUBKTNV-1" source="XsQhDETff7rVI9MwzLAx-21" target="XsQhDETff7rVI9MwzLAx-2">
          <mxGeometry x="-0.0348" y="-18" width="160" relative="1" as="geometry">
            <mxPoint x="940" y="-230" as="sourcePoint" />
            <mxPoint x="1100" y="-230" as="targetPoint" />
            <mxPoint as="offset" />
          </mxGeometry>
        </mxCell>
        <mxCell id="XsQhDETff7rVI9MwzLAx-49" value="EventManager" style="swimlane;fontStyle=1;align=center;verticalAlign=top;childLayout=stackLayout;horizontal=1;startSize=26;horizontalStack=0;resizeParent=1;resizeParentMax=0;resizeLast=0;collapsible=1;marginBottom=0;" vertex="1" parent="WIyWlLk6GJQsqaUBKTNV-1">
          <mxGeometry x="-100" y="-630" width="430" height="106" as="geometry" />
        </mxCell>
        <mxCell id="XsQhDETff7rVI9MwzLAx-50" value="" style="line;strokeWidth=1;fillColor=none;align=left;verticalAlign=middle;spacingTop=-1;spacingLeft=3;spacingRight=3;rotatable=0;labelPosition=right;points=[];portConstraint=eastwest;" vertex="1" parent="XsQhDETff7rVI9MwzLAx-49">
          <mxGeometry y="26" width="430" height="8" as="geometry" />
        </mxCell>
        <mxCell id="XsQhDETff7rVI9MwzLAx-51" value="+ StartListening(string, Action) : void" style="text;strokeColor=none;fillColor=none;align=left;verticalAlign=top;spacingLeft=4;spacingRight=4;overflow=hidden;rotatable=0;points=[[0,0.5],[1,0.5]];portConstraint=eastwest;fontStyle=4" vertex="1" parent="XsQhDETff7rVI9MwzLAx-49">
          <mxGeometry y="34" width="430" height="24" as="geometry" />
        </mxCell>
        <mxCell id="XsQhDETff7rVI9MwzLAx-52" value="+ StopListening(string, Action) : void" style="text;strokeColor=none;fillColor=none;align=left;verticalAlign=top;spacingLeft=4;spacingRight=4;overflow=hidden;rotatable=0;points=[[0,0.5],[1,0.5]];portConstraint=eastwest;fontStyle=4" vertex="1" parent="XsQhDETff7rVI9MwzLAx-49">
          <mxGeometry y="58" width="430" height="24" as="geometry" />
        </mxCell>
        <mxCell id="XsQhDETff7rVI9MwzLAx-53" value="+ TriggerEvent(string) : void" style="text;strokeColor=none;fillColor=none;align=left;verticalAlign=top;spacingLeft=4;spacingRight=4;overflow=hidden;rotatable=0;points=[[0,0.5],[1,0.5]];portConstraint=eastwest;fontStyle=4" vertex="1" parent="XsQhDETff7rVI9MwzLAx-49">
          <mxGeometry y="82" width="430" height="24" as="geometry" />
        </mxCell>
        <mxCell id="XsQhDETff7rVI9MwzLAx-54" value="LevelController" style="swimlane;fontStyle=1;align=center;verticalAlign=top;childLayout=stackLayout;horizontal=1;startSize=26;horizontalStack=0;resizeParent=1;resizeParentMax=0;resizeLast=0;collapsible=1;marginBottom=0;fillColor=#e1d5e7;strokeColor=#9673a6;" vertex="1" parent="WIyWlLk6GJQsqaUBKTNV-1">
          <mxGeometry x="400" y="500" width="370" height="58" as="geometry" />
        </mxCell>
        <mxCell id="XsQhDETff7rVI9MwzLAx-55" value="" style="line;strokeWidth=1;fillColor=#e1d5e7;align=left;verticalAlign=middle;spacingTop=-1;spacingLeft=3;spacingRight=3;rotatable=0;labelPosition=right;points=[];portConstraint=eastwest;strokeColor=#9673a6;" vertex="1" parent="XsQhDETff7rVI9MwzLAx-54">
          <mxGeometry y="26" width="370" height="8" as="geometry" />
        </mxCell>
        <mxCell id="XsQhDETff7rVI9MwzLAx-56" value="+ Init() : void" style="text;strokeColor=#9673a6;fillColor=#e1d5e7;align=left;verticalAlign=top;spacingLeft=4;spacingRight=4;overflow=hidden;rotatable=0;points=[[0,0.5],[1,0.5]];portConstraint=eastwest;" vertex="1" parent="XsQhDETff7rVI9MwzLAx-54">
          <mxGeometry y="34" width="370" height="24" as="geometry" />
        </mxCell>
        <mxCell id="XsQhDETff7rVI9MwzLAx-57" value="" style="endArrow=open;endFill=1;endSize=12;html=1;rounded=0;entryX=0.419;entryY=1.139;entryDx=0;entryDy=0;exitX=0.331;exitY=-0.023;exitDx=0;exitDy=0;exitPerimeter=0;entryPerimeter=0;fillColor=#e1d5e7;strokeColor=#9673a6;" edge="1" parent="WIyWlLk6GJQsqaUBKTNV-1" source="XsQhDETff7rVI9MwzLAx-54" target="XsQhDETff7rVI9MwzLAx-39">
          <mxGeometry width="160" relative="1" as="geometry">
            <mxPoint x="396.48" y="-72.11599999999999" as="sourcePoint" />
            <mxPoint x="15" y="220" as="targetPoint" />
          </mxGeometry>
        </mxCell>
        <mxCell id="XsQhDETff7rVI9MwzLAx-58" value="Fighter" style="swimlane;fontStyle=1;align=center;verticalAlign=top;childLayout=stackLayout;horizontal=1;startSize=26;horizontalStack=0;resizeParent=1;resizeParentMax=0;resizeLast=0;collapsible=1;marginBottom=0;" vertex="1" parent="WIyWlLk6GJQsqaUBKTNV-1">
          <mxGeometry x="-400" y="-1410" width="370" height="134" as="geometry" />
        </mxCell>
        <mxCell id="XsQhDETff7rVI9MwzLAx-59" value="- moveComponent : PlayerMoveComponent" style="text;strokeColor=none;fillColor=none;align=left;verticalAlign=top;spacingLeft=4;spacingRight=4;overflow=hidden;rotatable=0;points=[[0,0.5],[1,0.5]];portConstraint=eastwest;" vertex="1" parent="XsQhDETff7rVI9MwzLAx-58">
          <mxGeometry y="26" width="370" height="24" as="geometry" />
        </mxCell>
        <mxCell id="XsQhDETff7rVI9MwzLAx-60" value="- attackComponent: PlayerAttackComponent" style="text;strokeColor=none;fillColor=none;align=left;verticalAlign=top;spacingLeft=4;spacingRight=4;overflow=hidden;rotatable=0;points=[[0,0.5],[1,0.5]];portConstraint=eastwest;" vertex="1" parent="XsQhDETff7rVI9MwzLAx-58">
          <mxGeometry y="50" width="370" height="26" as="geometry" />
        </mxCell>
        <mxCell id="XsQhDETff7rVI9MwzLAx-63" value="- animationComponent: PlayerAnimationComponent" style="text;strokeColor=none;fillColor=none;align=left;verticalAlign=top;spacingLeft=4;spacingRight=4;overflow=hidden;rotatable=0;points=[[0,0.5],[1,0.5]];portConstraint=eastwest;" vertex="1" parent="XsQhDETff7rVI9MwzLAx-58">
          <mxGeometry y="76" width="370" height="26" as="geometry" />
        </mxCell>
        <mxCell id="XsQhDETff7rVI9MwzLAx-64" value="" style="line;strokeWidth=1;fillColor=none;align=left;verticalAlign=middle;spacingTop=-1;spacingLeft=3;spacingRight=3;rotatable=0;labelPosition=right;points=[];portConstraint=eastwest;" vertex="1" parent="XsQhDETff7rVI9MwzLAx-58">
          <mxGeometry y="102" width="370" height="8" as="geometry" />
        </mxCell>
        <mxCell id="XsQhDETff7rVI9MwzLAx-65" value="- Update() : void" style="text;strokeColor=none;fillColor=none;align=left;verticalAlign=top;spacingLeft=4;spacingRight=4;overflow=hidden;rotatable=0;points=[[0,0.5],[1,0.5]];portConstraint=eastwest;" vertex="1" parent="XsQhDETff7rVI9MwzLAx-58">
          <mxGeometry y="110" width="370" height="24" as="geometry" />
        </mxCell>
        <mxCell id="XsQhDETff7rVI9MwzLAx-66" value="FighterMoveComponent" style="swimlane;fontStyle=1;align=center;verticalAlign=top;childLayout=stackLayout;horizontal=1;startSize=26;horizontalStack=0;resizeParent=1;resizeParentMax=0;resizeLast=0;collapsible=1;marginBottom=0;" vertex="1" parent="WIyWlLk6GJQsqaUBKTNV-1">
          <mxGeometry x="-620" y="-934" width="370" height="274" as="geometry" />
        </mxCell>
        <mxCell id="XsQhDETff7rVI9MwzLAx-67" value="- playerMoveConfig : PlayerMoveConfig" style="text;strokeColor=none;fillColor=none;align=left;verticalAlign=top;spacingLeft=4;spacingRight=4;overflow=hidden;rotatable=0;points=[[0,0.5],[1,0.5]];portConstraint=eastwest;" vertex="1" parent="XsQhDETff7rVI9MwzLAx-66">
          <mxGeometry y="26" width="370" height="24" as="geometry" />
        </mxCell>
        <mxCell id="XsQhDETff7rVI9MwzLAx-68" value="- playerAnimationComponent : PlayerAnimationComponent" style="text;strokeColor=none;fillColor=none;align=left;verticalAlign=top;spacingLeft=4;spacingRight=4;overflow=hidden;rotatable=0;points=[[0,0.5],[1,0.5]];portConstraint=eastwest;" vertex="1" parent="XsQhDETff7rVI9MwzLAx-66">
          <mxGeometry y="50" width="370" height="24" as="geometry" />
        </mxCell>
        <mxCell id="XsQhDETff7rVI9MwzLAx-69" value="- moveSpeed : float" style="text;strokeColor=none;fillColor=none;align=left;verticalAlign=top;spacingLeft=4;spacingRight=4;overflow=hidden;rotatable=0;points=[[0,0.5],[1,0.5]];portConstraint=eastwest;" vertex="1" parent="XsQhDETff7rVI9MwzLAx-66">
          <mxGeometry y="74" width="370" height="24" as="geometry" />
        </mxCell>
        <mxCell id="XsQhDETff7rVI9MwzLAx-70" value="- rotationSpeed : float" style="text;strokeColor=none;fillColor=none;align=left;verticalAlign=top;spacingLeft=4;spacingRight=4;overflow=hidden;rotatable=0;points=[[0,0.5],[1,0.5]];portConstraint=eastwest;" vertex="1" parent="XsQhDETff7rVI9MwzLAx-66">
          <mxGeometry y="98" width="370" height="24" as="geometry" />
        </mxCell>
        <mxCell id="XsQhDETff7rVI9MwzLAx-71" value="- rigidBody : RigidBody" style="text;strokeColor=none;fillColor=none;align=left;verticalAlign=top;spacingLeft=4;spacingRight=4;overflow=hidden;rotatable=0;points=[[0,0.5],[1,0.5]];portConstraint=eastwest;" vertex="1" parent="XsQhDETff7rVI9MwzLAx-66">
          <mxGeometry y="122" width="370" height="24" as="geometry" />
        </mxCell>
        <mxCell id="XsQhDETff7rVI9MwzLAx-72" value="" style="line;strokeWidth=1;fillColor=none;align=left;verticalAlign=middle;spacingTop=-1;spacingLeft=3;spacingRight=3;rotatable=0;labelPosition=right;points=[];portConstraint=eastwest;" vertex="1" parent="XsQhDETff7rVI9MwzLAx-66">
          <mxGeometry y="146" width="370" height="8" as="geometry" />
        </mxCell>
        <mxCell id="XsQhDETff7rVI9MwzLAx-73" value="- FixedUpdate() : void" style="text;strokeColor=none;fillColor=none;align=left;verticalAlign=top;spacingLeft=4;spacingRight=4;overflow=hidden;rotatable=0;points=[[0,0.5],[1,0.5]];portConstraint=eastwest;" vertex="1" parent="XsQhDETff7rVI9MwzLAx-66">
          <mxGeometry y="154" width="370" height="24" as="geometry" />
        </mxCell>
        <mxCell id="XsQhDETff7rVI9MwzLAx-74" value="- UpdateSpeed() : void" style="text;strokeColor=none;fillColor=none;align=left;verticalAlign=top;spacingLeft=4;spacingRight=4;overflow=hidden;rotatable=0;points=[[0,0.5],[1,0.5]];portConstraint=eastwest;" vertex="1" parent="XsQhDETff7rVI9MwzLAx-66">
          <mxGeometry y="178" width="370" height="24" as="geometry" />
        </mxCell>
        <mxCell id="XsQhDETff7rVI9MwzLAx-75" value="- UpdateRotationSpeed() : void" style="text;strokeColor=none;fillColor=none;align=left;verticalAlign=top;spacingLeft=4;spacingRight=4;overflow=hidden;rotatable=0;points=[[0,0.5],[1,0.5]];portConstraint=eastwest;" vertex="1" parent="XsQhDETff7rVI9MwzLAx-66">
          <mxGeometry y="202" width="370" height="24" as="geometry" />
        </mxCell>
        <mxCell id="XsQhDETff7rVI9MwzLAx-76" value="- OnUpdateInputJoy(Vector3) : void" style="text;strokeColor=none;fillColor=none;align=left;verticalAlign=top;spacingLeft=4;spacingRight=4;overflow=hidden;rotatable=0;points=[[0,0.5],[1,0.5]];portConstraint=eastwest;" vertex="1" parent="XsQhDETff7rVI9MwzLAx-66">
          <mxGeometry y="226" width="370" height="24" as="geometry" />
        </mxCell>
        <mxCell id="XsQhDETff7rVI9MwzLAx-77" value="- OnInputUpJoy(Vector3) : void" style="text;strokeColor=none;fillColor=none;align=left;verticalAlign=top;spacingLeft=4;spacingRight=4;overflow=hidden;rotatable=0;points=[[0,0.5],[1,0.5]];portConstraint=eastwest;" vertex="1" parent="XsQhDETff7rVI9MwzLAx-66">
          <mxGeometry y="250" width="370" height="24" as="geometry" />
        </mxCell>
        <mxCell id="XsQhDETff7rVI9MwzLAx-78" value="PlayerConfig" style="swimlane;fontStyle=0;childLayout=stackLayout;horizontal=1;startSize=26;fillColor=none;horizontalStack=0;resizeParent=1;resizeParentMax=0;resizeLast=0;collapsible=1;marginBottom=0;fontSize=14;" vertex="1" parent="WIyWlLk6GJQsqaUBKTNV-1">
          <mxGeometry x="-2100" y="-819" width="480" height="132" as="geometry" />
        </mxCell>
        <mxCell id="XsQhDETff7rVI9MwzLAx-79" value="+ &lt;&lt;Get&gt;&gt; PlayerAttackConfig : PlayerAttackConfig " style="text;strokeColor=none;fillColor=none;align=left;verticalAlign=top;spacingLeft=4;spacingRight=4;overflow=hidden;rotatable=0;points=[[0,0.5],[1,0.5]];portConstraint=eastwest;fontSize=14;" vertex="1" parent="XsQhDETff7rVI9MwzLAx-78">
          <mxGeometry y="26" width="480" height="26" as="geometry" />
        </mxCell>
        <mxCell id="XsQhDETff7rVI9MwzLAx-80" value="+ &lt;&lt;Get&gt;&gt;PlayerMoveConfig: PlayerMoveConfig" style="text;strokeColor=none;fillColor=none;align=left;verticalAlign=top;spacingLeft=4;spacingRight=4;overflow=hidden;rotatable=0;points=[[0,0.5],[1,0.5]];portConstraint=eastwest;fontSize=14;" vertex="1" parent="XsQhDETff7rVI9MwzLAx-78">
          <mxGeometry y="52" width="480" height="28" as="geometry" />
        </mxCell>
        <mxCell id="XsQhDETff7rVI9MwzLAx-81" value="+ &lt;&lt;Get&gt;&gt; PlayerCrowdConfig : PlayerCrowdConfig " style="text;strokeColor=none;fillColor=none;align=left;verticalAlign=top;spacingLeft=4;spacingRight=4;overflow=hidden;rotatable=0;points=[[0,0.5],[1,0.5]];portConstraint=eastwest;fontSize=14;" vertex="1" parent="XsQhDETff7rVI9MwzLAx-78">
          <mxGeometry y="80" width="480" height="26" as="geometry" />
        </mxCell>
        <mxCell id="XsQhDETff7rVI9MwzLAx-82" value="+ &lt;&lt;Get&gt;&gt; PlayerHpConfig : PlayerHpConfig " style="text;strokeColor=none;fillColor=none;align=left;verticalAlign=top;spacingLeft=4;spacingRight=4;overflow=hidden;rotatable=0;points=[[0,0.5],[1,0.5]];portConstraint=eastwest;fontSize=14;" vertex="1" parent="XsQhDETff7rVI9MwzLAx-78">
          <mxGeometry y="106" width="480" height="26" as="geometry" />
        </mxCell>
        <mxCell id="XsQhDETff7rVI9MwzLAx-83" value="PlayerMoveConfig" style="swimlane;fontStyle=0;childLayout=stackLayout;horizontal=1;startSize=26;fillColor=none;horizontalStack=0;resizeParent=1;resizeParentMax=0;resizeLast=0;collapsible=1;marginBottom=0;fontSize=14;" vertex="1" parent="WIyWlLk6GJQsqaUBKTNV-1">
          <mxGeometry x="-1190" y="-792" width="320" height="78" as="geometry" />
        </mxCell>
        <mxCell id="XsQhDETff7rVI9MwzLAx-84" value="+ &lt;&lt;Get&gt;&gt; Speed : float" style="text;strokeColor=none;fillColor=none;align=left;verticalAlign=top;spacingLeft=4;spacingRight=4;overflow=hidden;rotatable=0;points=[[0,0.5],[1,0.5]];portConstraint=eastwest;fontSize=14;" vertex="1" parent="XsQhDETff7rVI9MwzLAx-83">
          <mxGeometry y="26" width="320" height="26" as="geometry" />
        </mxCell>
        <mxCell id="XsQhDETff7rVI9MwzLAx-85" value="+ &lt;&lt;Get&gt;&gt; StartRotationSpeed : float" style="text;strokeColor=none;fillColor=none;align=left;verticalAlign=top;spacingLeft=4;spacingRight=4;overflow=hidden;rotatable=0;points=[[0,0.5],[1,0.5]];portConstraint=eastwest;fontSize=14;" vertex="1" parent="XsQhDETff7rVI9MwzLAx-83">
          <mxGeometry y="52" width="320" height="26" as="geometry" />
        </mxCell>
        <mxCell id="XsQhDETff7rVI9MwzLAx-86" value="PlayerAttackConfig" style="swimlane;fontStyle=0;childLayout=stackLayout;horizontal=1;startSize=26;fillColor=none;horizontalStack=0;resizeParent=1;resizeParentMax=0;resizeLast=0;collapsible=1;marginBottom=0;fontSize=14;" vertex="1" parent="WIyWlLk6GJQsqaUBKTNV-1">
          <mxGeometry x="-1190" y="-952" width="320" height="104" as="geometry" />
        </mxCell>
        <mxCell id="XsQhDETff7rVI9MwzLAx-87" value="+ &lt;&lt;Get&gt;&gt; EnemyDetectionDistance : float" style="text;strokeColor=none;fillColor=none;align=left;verticalAlign=top;spacingLeft=4;spacingRight=4;overflow=hidden;rotatable=0;points=[[0,0.5],[1,0.5]];portConstraint=eastwest;fontSize=14;" vertex="1" parent="XsQhDETff7rVI9MwzLAx-86">
          <mxGeometry y="26" width="320" height="26" as="geometry" />
        </mxCell>
        <mxCell id="XsQhDETff7rVI9MwzLAx-88" value="+ &lt;&lt;Get&gt;&gt; StartRateOfFire : float" style="text;strokeColor=none;fillColor=none;align=left;verticalAlign=top;spacingLeft=4;spacingRight=4;overflow=hidden;rotatable=0;points=[[0,0.5],[1,0.5]];portConstraint=eastwest;fontSize=14;" vertex="1" parent="XsQhDETff7rVI9MwzLAx-86">
          <mxGeometry y="52" width="320" height="26" as="geometry" />
        </mxCell>
        <mxCell id="XsQhDETff7rVI9MwzLAx-89" value="+ &lt;&lt;Get&gt;&gt; StartDamage : float" style="text;strokeColor=none;fillColor=none;align=left;verticalAlign=top;spacingLeft=4;spacingRight=4;overflow=hidden;rotatable=0;points=[[0,0.5],[1,0.5]];portConstraint=eastwest;fontSize=14;" vertex="1" parent="XsQhDETff7rVI9MwzLAx-86">
          <mxGeometry y="78" width="320" height="26" as="geometry" />
        </mxCell>
        <mxCell id="XsQhDETff7rVI9MwzLAx-90" value="PlayerCrowdConfig" style="swimlane;fontStyle=0;childLayout=stackLayout;horizontal=1;startSize=26;fillColor=none;horizontalStack=0;resizeParent=1;resizeParentMax=0;resizeLast=0;collapsible=1;marginBottom=0;fontSize=14;" vertex="1" parent="WIyWlLk6GJQsqaUBKTNV-1">
          <mxGeometry x="-1190" y="-652" width="320" height="52" as="geometry" />
        </mxCell>
        <mxCell id="XsQhDETff7rVI9MwzLAx-91" value="+ &lt;&lt;Get&gt;&gt; StartCrowdCapacity : int" style="text;strokeColor=none;fillColor=none;align=left;verticalAlign=top;spacingLeft=4;spacingRight=4;overflow=hidden;rotatable=0;points=[[0,0.5],[1,0.5]];portConstraint=eastwest;fontSize=14;" vertex="1" parent="XsQhDETff7rVI9MwzLAx-90">
          <mxGeometry y="26" width="320" height="26" as="geometry" />
        </mxCell>
        <mxCell id="XsQhDETff7rVI9MwzLAx-92" value="PlayerHpConfig" style="swimlane;fontStyle=0;childLayout=stackLayout;horizontal=1;startSize=26;fillColor=none;horizontalStack=0;resizeParent=1;resizeParentMax=0;resizeLast=0;collapsible=1;marginBottom=0;fontSize=14;" vertex="1" parent="WIyWlLk6GJQsqaUBKTNV-1">
          <mxGeometry x="-1190" y="-542" width="320" height="52" as="geometry" />
        </mxCell>
        <mxCell id="XsQhDETff7rVI9MwzLAx-93" value="+ &lt;&lt;Get&gt;&gt; StartHP : float" style="text;strokeColor=none;fillColor=none;align=left;verticalAlign=top;spacingLeft=4;spacingRight=4;overflow=hidden;rotatable=0;points=[[0,0.5],[1,0.5]];portConstraint=eastwest;fontSize=14;" vertex="1" parent="XsQhDETff7rVI9MwzLAx-92">
          <mxGeometry y="26" width="320" height="26" as="geometry" />
        </mxCell>
        <mxCell id="XsQhDETff7rVI9MwzLAx-94" value="" style="endArrow=none;html=1;edgeStyle=orthogonalEdgeStyle;rounded=0;fontSize=14;" edge="1" parent="WIyWlLk6GJQsqaUBKTNV-1">
          <mxGeometry relative="1" as="geometry">
            <mxPoint x="-1190" y="-887" as="sourcePoint" />
            <mxPoint x="-1190" y="-517" as="targetPoint" />
            <Array as="points">
              <mxPoint x="-1290" y="-887" />
              <mxPoint x="-1290" y="-517" />
            </Array>
          </mxGeometry>
        </mxCell>
        <mxCell id="XsQhDETff7rVI9MwzLAx-95" value="" style="endArrow=diamondThin;endFill=0;endSize=24;html=1;rounded=0;fontSize=14;" edge="1" parent="WIyWlLk6GJQsqaUBKTNV-1">
          <mxGeometry width="160" relative="1" as="geometry">
            <mxPoint x="-1190" y="-752" as="sourcePoint" />
            <mxPoint x="-1630.000000000001" y="-752" as="targetPoint" />
          </mxGeometry>
        </mxCell>
        <mxCell id="XsQhDETff7rVI9MwzLAx-96" value="" style="endArrow=open;endFill=1;endSize=12;html=1;rounded=0;fontSize=14;entryX=1;entryY=0.5;entryDx=0;entryDy=0;" edge="1" parent="WIyWlLk6GJQsqaUBKTNV-1" target="XsQhDETff7rVI9MwzLAx-84">
          <mxGeometry width="160" relative="1" as="geometry">
            <mxPoint x="-630" y="-753" as="sourcePoint" />
            <mxPoint x="-620" y="-890" as="targetPoint" />
          </mxGeometry>
        </mxCell>
        <mxCell id="XsQhDETff7rVI9MwzLAx-97" value="FighterAttackComponent" style="swimlane;fontStyle=1;align=center;verticalAlign=top;childLayout=stackLayout;horizontal=1;startSize=26;horizontalStack=0;resizeParent=1;resizeParentMax=0;resizeLast=0;collapsible=1;marginBottom=0;" vertex="1" parent="WIyWlLk6GJQsqaUBKTNV-1">
          <mxGeometry x="-820" y="-1646" width="370" height="202" as="geometry" />
        </mxCell>
        <mxCell id="XsQhDETff7rVI9MwzLAx-98" value="- playerAttackConfig : PlayerAttackConfig" style="text;strokeColor=none;fillColor=none;align=left;verticalAlign=top;spacingLeft=4;spacingRight=4;overflow=hidden;rotatable=0;points=[[0,0.5],[1,0.5]];portConstraint=eastwest;" vertex="1" parent="XsQhDETff7rVI9MwzLAx-97">
          <mxGeometry y="26" width="370" height="24" as="geometry" />
        </mxCell>
        <mxCell id="XsQhDETff7rVI9MwzLAx-99" value="- playerAnimationComponent : PlayerAnimationComponent" style="text;strokeColor=none;fillColor=none;align=left;verticalAlign=top;spacingLeft=4;spacingRight=4;overflow=hidden;rotatable=0;points=[[0,0.5],[1,0.5]];portConstraint=eastwest;" vertex="1" parent="XsQhDETff7rVI9MwzLAx-97">
          <mxGeometry y="50" width="370" height="24" as="geometry" />
        </mxCell>
        <mxCell id="XsQhDETff7rVI9MwzLAx-100" value="- detectionDistance : float" style="text;strokeColor=none;fillColor=none;align=left;verticalAlign=top;spacingLeft=4;spacingRight=4;overflow=hidden;rotatable=0;points=[[0,0.5],[1,0.5]];portConstraint=eastwest;" vertex="1" parent="XsQhDETff7rVI9MwzLAx-97">
          <mxGeometry y="74" width="370" height="24" as="geometry" />
        </mxCell>
        <mxCell id="XsQhDETff7rVI9MwzLAx-101" value="- rateOfFire : float" style="text;strokeColor=none;fillColor=none;align=left;verticalAlign=top;spacingLeft=4;spacingRight=4;overflow=hidden;rotatable=0;points=[[0,0.5],[1,0.5]];portConstraint=eastwest;" vertex="1" parent="XsQhDETff7rVI9MwzLAx-97">
          <mxGeometry y="98" width="370" height="24" as="geometry" />
        </mxCell>
        <mxCell id="XsQhDETff7rVI9MwzLAx-102" value="- damage : float" style="text;strokeColor=none;fillColor=none;align=left;verticalAlign=top;spacingLeft=4;spacingRight=4;overflow=hidden;rotatable=0;points=[[0,0.5],[1,0.5]];portConstraint=eastwest;" vertex="1" parent="XsQhDETff7rVI9MwzLAx-97">
          <mxGeometry y="122" width="370" height="24" as="geometry" />
        </mxCell>
        <mxCell id="XsQhDETff7rVI9MwzLAx-103" value="" style="line;strokeWidth=1;fillColor=none;align=left;verticalAlign=middle;spacingTop=-1;spacingLeft=3;spacingRight=3;rotatable=0;labelPosition=right;points=[];portConstraint=eastwest;" vertex="1" parent="XsQhDETff7rVI9MwzLAx-97">
          <mxGeometry y="146" width="370" height="8" as="geometry" />
        </mxCell>
        <mxCell id="XsQhDETff7rVI9MwzLAx-104" value="- DetectionEnemies() : bool" style="text;strokeColor=none;fillColor=none;align=left;verticalAlign=top;spacingLeft=4;spacingRight=4;overflow=hidden;rotatable=0;points=[[0,0.5],[1,0.5]];portConstraint=eastwest;" vertex="1" parent="XsQhDETff7rVI9MwzLAx-97">
          <mxGeometry y="154" width="370" height="24" as="geometry" />
        </mxCell>
        <mxCell id="XsQhDETff7rVI9MwzLAx-105" value="- AttackEnemies() : void" style="text;strokeColor=none;fillColor=none;align=left;verticalAlign=top;spacingLeft=4;spacingRight=4;overflow=hidden;rotatable=0;points=[[0,0.5],[1,0.5]];portConstraint=eastwest;" vertex="1" parent="XsQhDETff7rVI9MwzLAx-97">
          <mxGeometry y="178" width="370" height="24" as="geometry" />
        </mxCell>
        <mxCell id="XsQhDETff7rVI9MwzLAx-106" value="InputManager" style="swimlane;fontStyle=1;align=center;verticalAlign=top;childLayout=stackLayout;horizontal=1;startSize=26;horizontalStack=0;resizeParent=1;resizeParentMax=0;resizeLast=0;collapsible=1;marginBottom=0;fillColor=#b0e3e6;strokeColor=#0e8088;" vertex="1" parent="WIyWlLk6GJQsqaUBKTNV-1">
          <mxGeometry x="-601" y="-390" width="430" height="106" as="geometry" />
        </mxCell>
        <mxCell id="XsQhDETff7rVI9MwzLAx-107" value="" style="line;strokeWidth=1;fillColor=#b0e3e6;align=left;verticalAlign=middle;spacingTop=-1;spacingLeft=3;spacingRight=3;rotatable=0;labelPosition=right;points=[];portConstraint=eastwest;strokeColor=#0e8088;" vertex="1" parent="XsQhDETff7rVI9MwzLAx-106">
          <mxGeometry y="26" width="430" height="8" as="geometry" />
        </mxCell>
        <mxCell id="XsQhDETff7rVI9MwzLAx-108" value="- OnInputStart(Vector3) : void" style="text;strokeColor=#0e8088;fillColor=#b0e3e6;align=left;verticalAlign=top;spacingLeft=4;spacingRight=4;overflow=hidden;rotatable=0;points=[[0,0.5],[1,0.5]];portConstraint=eastwest;fontStyle=4" vertex="1" parent="XsQhDETff7rVI9MwzLAx-106">
          <mxGeometry y="34" width="430" height="24" as="geometry" />
        </mxCell>
        <mxCell id="XsQhDETff7rVI9MwzLAx-109" value="- OnInputUpdate(Vector3) : void" style="text;strokeColor=#0e8088;fillColor=#b0e3e6;align=left;verticalAlign=top;spacingLeft=4;spacingRight=4;overflow=hidden;rotatable=0;points=[[0,0.5],[1,0.5]];portConstraint=eastwest;fontStyle=4" vertex="1" parent="XsQhDETff7rVI9MwzLAx-106">
          <mxGeometry y="58" width="430" height="24" as="geometry" />
        </mxCell>
        <mxCell id="XsQhDETff7rVI9MwzLAx-110" value="- OnInputEnd(Vector3) : void" style="text;strokeColor=#0e8088;fillColor=#b0e3e6;align=left;verticalAlign=top;spacingLeft=4;spacingRight=4;overflow=hidden;rotatable=0;points=[[0,0.5],[1,0.5]];portConstraint=eastwest;fontStyle=4" vertex="1" parent="XsQhDETff7rVI9MwzLAx-106">
          <mxGeometry y="82" width="430" height="24" as="geometry" />
        </mxCell>
        <mxCell id="XsQhDETff7rVI9MwzLAx-111" value="Use" style="endArrow=open;endSize=12;dashed=1;html=1;rounded=0;fontSize=14;exitX=0.894;exitY=0.003;exitDx=0;exitDy=0;exitPerimeter=0;entryX=0;entryY=0.5;entryDx=0;entryDy=0;" edge="1" parent="WIyWlLk6GJQsqaUBKTNV-1" source="XsQhDETff7rVI9MwzLAx-106" target="XsQhDETff7rVI9MwzLAx-52">
          <mxGeometry width="160" relative="1" as="geometry">
            <mxPoint x="180" y="-270" as="sourcePoint" />
            <mxPoint x="340" y="-270" as="targetPoint" />
          </mxGeometry>
        </mxCell>
        <mxCell id="XsQhDETff7rVI9MwzLAx-112" value="Use" style="endArrow=open;endSize=12;dashed=1;html=1;rounded=0;fontSize=14;exitX=0.999;exitY=0.542;exitDx=0;exitDy=0;exitPerimeter=0;entryX=0;entryY=0.5;entryDx=0;entryDy=0;" edge="1" parent="WIyWlLk6GJQsqaUBKTNV-1" source="XsQhDETff7rVI9MwzLAx-72" target="XsQhDETff7rVI9MwzLAx-51">
          <mxGeometry width="160" relative="1" as="geometry">
            <mxPoint x="-80" y="-600" as="sourcePoint" />
            <mxPoint x="80" y="-600" as="targetPoint" />
          </mxGeometry>
        </mxCell>
        <mxCell id="XsQhDETff7rVI9MwzLAx-113" value="FighterAnimationComponent" style="swimlane;fontStyle=1;align=center;verticalAlign=top;childLayout=stackLayout;horizontal=1;startSize=26;horizontalStack=0;resizeParent=1;resizeParentMax=0;resizeLast=0;collapsible=1;marginBottom=0;" vertex="1" parent="WIyWlLk6GJQsqaUBKTNV-1">
          <mxGeometry x="-860" y="-1270" width="370" height="154" as="geometry" />
        </mxCell>
        <mxCell id="XsQhDETff7rVI9MwzLAx-114" value="- animator : Animator" style="text;strokeColor=none;fillColor=none;align=left;verticalAlign=top;spacingLeft=4;spacingRight=4;overflow=hidden;rotatable=0;points=[[0,0.5],[1,0.5]];portConstraint=eastwest;" vertex="1" parent="XsQhDETff7rVI9MwzLAx-113">
          <mxGeometry y="26" width="370" height="24" as="geometry" />
        </mxCell>
        <mxCell id="XsQhDETff7rVI9MwzLAx-115" value="" style="line;strokeWidth=1;fillColor=none;align=left;verticalAlign=middle;spacingTop=-1;spacingLeft=3;spacingRight=3;rotatable=0;labelPosition=right;points=[];portConstraint=eastwest;" vertex="1" parent="XsQhDETff7rVI9MwzLAx-113">
          <mxGeometry y="50" width="370" height="8" as="geometry" />
        </mxCell>
        <mxCell id="XsQhDETff7rVI9MwzLAx-116" value="+ EnableMoveAnimation(bool) : void" style="text;strokeColor=none;fillColor=none;align=left;verticalAlign=top;spacingLeft=4;spacingRight=4;overflow=hidden;rotatable=0;points=[[0,0.5],[1,0.5]];portConstraint=eastwest;" vertex="1" parent="XsQhDETff7rVI9MwzLAx-113">
          <mxGeometry y="58" width="370" height="24" as="geometry" />
        </mxCell>
        <mxCell id="XsQhDETff7rVI9MwzLAx-117" value="+ EnableIdleAnimation(bool) : void" style="text;strokeColor=none;fillColor=none;align=left;verticalAlign=top;spacingLeft=4;spacingRight=4;overflow=hidden;rotatable=0;points=[[0,0.5],[1,0.5]];portConstraint=eastwest;" vertex="1" parent="XsQhDETff7rVI9MwzLAx-113">
          <mxGeometry y="82" width="370" height="24" as="geometry" />
        </mxCell>
        <mxCell id="XsQhDETff7rVI9MwzLAx-118" value="+ EnableAttackAnimation(bool) : void" style="text;strokeColor=none;fillColor=none;align=left;verticalAlign=top;spacingLeft=4;spacingRight=4;overflow=hidden;rotatable=0;points=[[0,0.5],[1,0.5]];portConstraint=eastwest;" vertex="1" parent="XsQhDETff7rVI9MwzLAx-113">
          <mxGeometry y="106" width="370" height="24" as="geometry" />
        </mxCell>
        <mxCell id="XsQhDETff7rVI9MwzLAx-119" value="+ ResetAnimations() : void" style="text;strokeColor=none;fillColor=none;align=left;verticalAlign=top;spacingLeft=4;spacingRight=4;overflow=hidden;rotatable=0;points=[[0,0.5],[1,0.5]];portConstraint=eastwest;" vertex="1" parent="XsQhDETff7rVI9MwzLAx-113">
          <mxGeometry y="130" width="370" height="24" as="geometry" />
        </mxCell>
        <mxCell id="XsQhDETff7rVI9MwzLAx-182" value="" style="endArrow=open;endFill=1;endSize=12;html=1;rounded=0;exitX=0;exitY=0.5;exitDx=0;exitDy=0;entryX=1;entryY=0.5;entryDx=0;entryDy=0;" edge="1" parent="WIyWlLk6GJQsqaUBKTNV-1" source="XsQhDETff7rVI9MwzLAx-60" target="XsQhDETff7rVI9MwzLAx-117">
          <mxGeometry width="160" relative="1" as="geometry">
            <mxPoint x="-79.99999999999955" y="-831" as="sourcePoint" />
            <mxPoint x="-245.17999999999984" y="-756.848" as="targetPoint" />
          </mxGeometry>
        </mxCell>
        <mxCell id="XsQhDETff7rVI9MwzLAx-185" value="" style="endArrow=open;endFill=1;endSize=12;html=1;rounded=0;exitX=0;exitY=0;exitDx=0;exitDy=0;entryX=1;entryY=0.5;entryDx=0;entryDy=0;" edge="1" parent="WIyWlLk6GJQsqaUBKTNV-1" source="XsQhDETff7rVI9MwzLAx-58" target="XsQhDETff7rVI9MwzLAx-101">
          <mxGeometry width="160" relative="1" as="geometry">
            <mxPoint x="4.547473508864641e-13" y="-817" as="sourcePoint" />
            <mxPoint x="-289.99999999999955" y="-1096" as="targetPoint" />
          </mxGeometry>
        </mxCell>
        <mxCell id="XsQhDETff7rVI9MwzLAx-186" value="SaveLoadManager" style="swimlane;fontStyle=1;align=center;verticalAlign=top;childLayout=stackLayout;horizontal=1;startSize=26;horizontalStack=0;resizeParent=1;resizeParentMax=0;resizeLast=0;collapsible=1;marginBottom=0;fillColor=#d5e8d4;strokeColor=#82b366;" vertex="1" parent="WIyWlLk6GJQsqaUBKTNV-1">
          <mxGeometry x="-240" y="286" width="370" height="106" as="geometry" />
        </mxCell>
        <mxCell id="XsQhDETff7rVI9MwzLAx-187" value="- saveData: GameSaveData" style="text;strokeColor=#82b366;fillColor=#d5e8d4;align=left;verticalAlign=top;spacingLeft=4;spacingRight=4;overflow=hidden;rotatable=0;points=[[0,0.5],[1,0.5]];portConstraint=eastwest;" vertex="1" parent="XsQhDETff7rVI9MwzLAx-186">
          <mxGeometry y="26" width="370" height="24" as="geometry" />
        </mxCell>
        <mxCell id="XsQhDETff7rVI9MwzLAx-188" value="" style="line;strokeWidth=1;fillColor=#d5e8d4;align=left;verticalAlign=middle;spacingTop=-1;spacingLeft=3;spacingRight=3;rotatable=0;labelPosition=right;points=[];portConstraint=eastwest;strokeColor=#82b366;" vertex="1" parent="XsQhDETff7rVI9MwzLAx-186">
          <mxGeometry y="50" width="370" height="8" as="geometry" />
        </mxCell>
        <mxCell id="XsQhDETff7rVI9MwzLAx-189" value="+ SetLevelIndex (int) : void" style="text;strokeColor=#82b366;fillColor=#d5e8d4;align=left;verticalAlign=top;spacingLeft=4;spacingRight=4;overflow=hidden;rotatable=0;points=[[0,0.5],[1,0.5]];portConstraint=eastwest;" vertex="1" parent="XsQhDETff7rVI9MwzLAx-186">
          <mxGeometry y="58" width="370" height="24" as="geometry" />
        </mxCell>
        <mxCell id="XsQhDETff7rVI9MwzLAx-190" value="+ GetLevelIndex () : int" style="text;strokeColor=#82b366;fillColor=#d5e8d4;align=left;verticalAlign=top;spacingLeft=4;spacingRight=4;overflow=hidden;rotatable=0;points=[[0,0.5],[1,0.5]];portConstraint=eastwest;" vertex="1" parent="XsQhDETff7rVI9MwzLAx-186">
          <mxGeometry y="82" width="370" height="24" as="geometry" />
        </mxCell>
        <mxCell id="XsQhDETff7rVI9MwzLAx-191" value="GameSaveData" style="swimlane;fontStyle=1;align=center;verticalAlign=top;childLayout=stackLayout;horizontal=1;startSize=26;horizontalStack=0;resizeParent=1;resizeParentMax=0;resizeLast=0;collapsible=1;marginBottom=0;fillColor=#d5e8d4;strokeColor=#82b366;" vertex="1" parent="WIyWlLk6GJQsqaUBKTNV-1">
          <mxGeometry x="-240" y="526" width="370" height="58" as="geometry" />
        </mxCell>
        <mxCell id="XsQhDETff7rVI9MwzLAx-192" value="+ LevelIndex: int" style="text;strokeColor=#82b366;fillColor=#d5e8d4;align=left;verticalAlign=top;spacingLeft=4;spacingRight=4;overflow=hidden;rotatable=0;points=[[0,0.5],[1,0.5]];portConstraint=eastwest;" vertex="1" parent="XsQhDETff7rVI9MwzLAx-191">
          <mxGeometry y="26" width="370" height="24" as="geometry" />
        </mxCell>
        <mxCell id="XsQhDETff7rVI9MwzLAx-193" value="" style="line;strokeWidth=1;fillColor=#d5e8d4;align=left;verticalAlign=middle;spacingTop=-1;spacingLeft=3;spacingRight=3;rotatable=0;labelPosition=right;points=[];portConstraint=eastwest;strokeColor=#82b366;" vertex="1" parent="XsQhDETff7rVI9MwzLAx-191">
          <mxGeometry y="50" width="370" height="8" as="geometry" />
        </mxCell>
        <mxCell id="XsQhDETff7rVI9MwzLAx-194" value="" style="endArrow=open;endFill=1;endSize=12;html=1;rounded=0;entryX=0.5;entryY=0;entryDx=0;entryDy=0;exitX=0.492;exitY=1.104;exitDx=0;exitDy=0;exitPerimeter=0;fillColor=#d5e8d4;strokeColor=#82b366;" edge="1" parent="WIyWlLk6GJQsqaUBKTNV-1" source="XsQhDETff7rVI9MwzLAx-190" target="XsQhDETff7rVI9MwzLAx-191">
          <mxGeometry width="160" relative="1" as="geometry">
            <mxPoint x="-500" y="320" as="sourcePoint" />
            <mxPoint x="-340" y="320" as="targetPoint" />
          </mxGeometry>
        </mxCell>
        <mxCell id="XsQhDETff7rVI9MwzLAx-195" value="" style="endArrow=open;endFill=1;endSize=12;html=1;rounded=0;entryX=0.616;entryY=-0.014;entryDx=0;entryDy=0;entryPerimeter=0;exitX=0.25;exitY=1;exitDx=0;exitDy=0;" edge="1" parent="WIyWlLk6GJQsqaUBKTNV-1" source="XsQhDETff7rVI9MwzLAx-0" target="XsQhDETff7rVI9MwzLAx-186">
          <mxGeometry width="160" relative="1" as="geometry">
            <mxPoint x="230" y="20" as="sourcePoint" />
            <mxPoint x="30" y="90" as="targetPoint" />
          </mxGeometry>
        </mxCell>
        <mxCell id="XsQhDETff7rVI9MwzLAx-197" value="Cell" style="swimlane;fontStyle=1;align=center;verticalAlign=top;childLayout=stackLayout;horizontal=1;startSize=26;horizontalStack=0;resizeParent=1;resizeParentMax=0;resizeLast=0;collapsible=1;marginBottom=0;" vertex="1" parent="WIyWlLk6GJQsqaUBKTNV-1">
          <mxGeometry x="501" y="-700" width="370" height="130" as="geometry" />
        </mxCell>
        <mxCell id="XsQhDETff7rVI9MwzLAx-198" value="+&lt;&lt;Get&gt;&gt;IsMergeAvailable: bool&#xa;" style="text;strokeColor=none;fillColor=none;align=left;verticalAlign=top;spacingLeft=4;spacingRight=4;overflow=hidden;rotatable=0;points=[[0,0.5],[1,0.5]];portConstraint=eastwest;" vertex="1" parent="XsQhDETff7rVI9MwzLAx-197">
          <mxGeometry y="26" width="370" height="24" as="geometry" />
        </mxCell>
        <mxCell id="XsQhDETff7rVI9MwzLAx-213" value="+&lt;&lt;Get&gt;&gt;CellBusyType: CellBusyType&#xa;" style="text;strokeColor=none;fillColor=none;align=left;verticalAlign=top;spacingLeft=4;spacingRight=4;overflow=hidden;rotatable=0;points=[[0,0.5],[1,0.5]];portConstraint=eastwest;" vertex="1" parent="XsQhDETff7rVI9MwzLAx-197">
          <mxGeometry y="50" width="370" height="24" as="geometry" />
        </mxCell>
        <mxCell id="XsQhDETff7rVI9MwzLAx-254" value="-cellSpawnersComponent: CellSpawnersComponent" style="text;strokeColor=none;fillColor=none;align=left;verticalAlign=top;spacingLeft=4;spacingRight=4;overflow=hidden;rotatable=0;points=[[0,0.5],[1,0.5]];portConstraint=eastwest;" vertex="1" parent="XsQhDETff7rVI9MwzLAx-197">
          <mxGeometry y="74" width="370" height="24" as="geometry" />
        </mxCell>
        <mxCell id="XsQhDETff7rVI9MwzLAx-201" value="" style="line;strokeWidth=1;fillColor=none;align=left;verticalAlign=middle;spacingTop=-1;spacingLeft=3;spacingRight=3;rotatable=0;labelPosition=right;points=[];portConstraint=eastwest;" vertex="1" parent="XsQhDETff7rVI9MwzLAx-197">
          <mxGeometry y="98" width="370" height="8" as="geometry" />
        </mxCell>
        <mxCell id="XsQhDETff7rVI9MwzLAx-202" value="- OnTriggerEnter(Collider other) : void" style="text;strokeColor=none;fillColor=none;align=left;verticalAlign=top;spacingLeft=4;spacingRight=4;overflow=hidden;rotatable=0;points=[[0,0.5],[1,0.5]];portConstraint=eastwest;" vertex="1" parent="XsQhDETff7rVI9MwzLAx-197">
          <mxGeometry y="106" width="370" height="24" as="geometry" />
        </mxCell>
        <mxCell id="XsQhDETff7rVI9MwzLAx-203" value="&lt;&lt;Enumeration&gt;&gt;&#xa;CellBusyType" style="swimlane;fontStyle=1;align=center;verticalAlign=top;childLayout=stackLayout;horizontal=1;startSize=46;horizontalStack=0;resizeParent=1;resizeParentMax=0;resizeLast=0;collapsible=1;marginBottom=0;" vertex="1" parent="WIyWlLk6GJQsqaUBKTNV-1">
          <mxGeometry x="860" y="-1050" width="370" height="128" as="geometry" />
        </mxCell>
        <mxCell id="XsQhDETff7rVI9MwzLAx-204" value="Nothing&#xa;EnemyBusy&#xa;PlayerBusy&#xa;CarBusy&#xa;" style="text;strokeColor=none;fillColor=none;align=left;verticalAlign=top;spacingLeft=4;spacingRight=4;overflow=hidden;rotatable=0;points=[[0,0.5],[1,0.5]];portConstraint=eastwest;" vertex="1" parent="XsQhDETff7rVI9MwzLAx-203">
          <mxGeometry y="46" width="370" height="74" as="geometry" />
        </mxCell>
        <mxCell id="XsQhDETff7rVI9MwzLAx-205" value="" style="line;strokeWidth=1;fillColor=none;align=left;verticalAlign=middle;spacingTop=-1;spacingLeft=3;spacingRight=3;rotatable=0;labelPosition=right;points=[];portConstraint=eastwest;" vertex="1" parent="XsQhDETff7rVI9MwzLAx-203">
          <mxGeometry y="120" width="370" height="8" as="geometry" />
        </mxCell>
        <mxCell id="XsQhDETff7rVI9MwzLAx-207" value="Row" style="swimlane;fontStyle=1;align=center;verticalAlign=top;childLayout=stackLayout;horizontal=1;startSize=26;horizontalStack=0;resizeParent=1;resizeParentMax=0;resizeLast=0;collapsible=1;marginBottom=0;" vertex="1" parent="WIyWlLk6GJQsqaUBKTNV-1">
          <mxGeometry x="920" y="-1278" width="370" height="106" as="geometry" />
        </mxCell>
        <mxCell id="XsQhDETff7rVI9MwzLAx-208" value="- fighterSpawners: List&lt;FighterSpawner&gt;" style="text;strokeColor=none;fillColor=none;align=left;verticalAlign=top;spacingLeft=4;spacingRight=4;overflow=hidden;rotatable=0;points=[[0,0.5],[1,0.5]];portConstraint=eastwest;" vertex="1" parent="XsQhDETff7rVI9MwzLAx-207">
          <mxGeometry y="26" width="370" height="24" as="geometry" />
        </mxCell>
        <mxCell id="XsQhDETff7rVI9MwzLAx-209" value="" style="line;strokeWidth=1;fillColor=none;align=left;verticalAlign=middle;spacingTop=-1;spacingLeft=3;spacingRight=3;rotatable=0;labelPosition=right;points=[];portConstraint=eastwest;" vertex="1" parent="XsQhDETff7rVI9MwzLAx-207">
          <mxGeometry y="50" width="370" height="8" as="geometry" />
        </mxCell>
        <mxCell id="XsQhDETff7rVI9MwzLAx-210" value="+AddFighterSpawner()" style="text;strokeColor=none;fillColor=none;align=left;verticalAlign=top;spacingLeft=4;spacingRight=4;overflow=hidden;rotatable=0;points=[[0,0.5],[1,0.5]];portConstraint=eastwest;" vertex="1" parent="XsQhDETff7rVI9MwzLAx-207">
          <mxGeometry y="58" width="370" height="24" as="geometry" />
        </mxCell>
        <mxCell id="XsQhDETff7rVI9MwzLAx-238" value="+RemoveFighterSpawner()" style="text;strokeColor=none;fillColor=none;align=left;verticalAlign=top;spacingLeft=4;spacingRight=4;overflow=hidden;rotatable=0;points=[[0,0.5],[1,0.5]];portConstraint=eastwest;" vertex="1" parent="XsQhDETff7rVI9MwzLAx-207">
          <mxGeometry y="82" width="370" height="24" as="geometry" />
        </mxCell>
        <mxCell id="XsQhDETff7rVI9MwzLAx-214" value="ICellContent" style="swimlane;fontStyle=1;align=center;verticalAlign=top;childLayout=stackLayout;horizontal=1;startSize=26;horizontalStack=0;resizeParent=1;resizeParentMax=0;resizeLast=0;collapsible=1;marginBottom=0;" vertex="1" parent="WIyWlLk6GJQsqaUBKTNV-1">
          <mxGeometry x="470" y="-1140" width="370" height="50" as="geometry" />
        </mxCell>
        <mxCell id="XsQhDETff7rVI9MwzLAx-219" value="IFighterSpawnable" style="swimlane;fontStyle=1;align=center;verticalAlign=top;childLayout=stackLayout;horizontal=1;startSize=26;horizontalStack=0;resizeParent=1;resizeParentMax=0;resizeLast=0;collapsible=1;marginBottom=0;" vertex="1" parent="WIyWlLk6GJQsqaUBKTNV-1">
          <mxGeometry x="210" y="-1480" width="370" height="50" as="geometry" />
        </mxCell>
        <mxCell id="XsQhDETff7rVI9MwzLAx-224" value="- Spawn() : Void" style="text;strokeColor=none;fillColor=none;align=left;verticalAlign=top;spacingLeft=4;spacingRight=4;overflow=hidden;rotatable=0;points=[[0,0.5],[1,0.5]];portConstraint=eastwest;" vertex="1" parent="XsQhDETff7rVI9MwzLAx-219">
          <mxGeometry y="26" width="370" height="24" as="geometry" />
        </mxCell>
        <mxCell id="XsQhDETff7rVI9MwzLAx-227" value="FighterSpawner" style="swimlane;fontStyle=1;align=center;verticalAlign=top;childLayout=stackLayout;horizontal=1;startSize=26;horizontalStack=0;resizeParent=1;resizeParentMax=0;resizeLast=0;collapsible=1;marginBottom=0;" vertex="1" parent="WIyWlLk6GJQsqaUBKTNV-1">
          <mxGeometry x="190" y="-1290" width="370" height="130" as="geometry" />
        </mxCell>
        <mxCell id="XsQhDETff7rVI9MwzLAx-228" value="- timeSpawnInterval: float" style="text;strokeColor=none;fillColor=none;align=left;verticalAlign=top;spacingLeft=4;spacingRight=4;overflow=hidden;rotatable=0;points=[[0,0.5],[1,0.5]];portConstraint=eastwest;" vertex="1" parent="XsQhDETff7rVI9MwzLAx-227">
          <mxGeometry y="26" width="370" height="24" as="geometry" />
        </mxCell>
        <mxCell id="XsQhDETff7rVI9MwzLAx-232" value="- timer: float" style="text;strokeColor=none;fillColor=none;align=left;verticalAlign=top;spacingLeft=4;spacingRight=4;overflow=hidden;rotatable=0;points=[[0,0.5],[1,0.5]];portConstraint=eastwest;" vertex="1" parent="XsQhDETff7rVI9MwzLAx-227">
          <mxGeometry y="50" width="370" height="24" as="geometry" />
        </mxCell>
        <mxCell id="XsQhDETff7rVI9MwzLAx-229" value="" style="line;strokeWidth=1;fillColor=none;align=left;verticalAlign=middle;spacingTop=-1;spacingLeft=3;spacingRight=3;rotatable=0;labelPosition=right;points=[];portConstraint=eastwest;" vertex="1" parent="XsQhDETff7rVI9MwzLAx-227">
          <mxGeometry y="74" width="370" height="8" as="geometry" />
        </mxCell>
        <mxCell id="XsQhDETff7rVI9MwzLAx-231" value="- Spawn() : Void" style="text;strokeColor=none;fillColor=none;align=left;verticalAlign=top;spacingLeft=4;spacingRight=4;overflow=hidden;rotatable=0;points=[[0,0.5],[1,0.5]];portConstraint=eastwest;" vertex="1" parent="XsQhDETff7rVI9MwzLAx-227">
          <mxGeometry y="82" width="370" height="24" as="geometry" />
        </mxCell>
        <mxCell id="XsQhDETff7rVI9MwzLAx-230" value="- " style="text;strokeColor=none;fillColor=none;align=left;verticalAlign=top;spacingLeft=4;spacingRight=4;overflow=hidden;rotatable=0;points=[[0,0.5],[1,0.5]];portConstraint=eastwest;" vertex="1" parent="XsQhDETff7rVI9MwzLAx-227">
          <mxGeometry y="106" width="370" height="24" as="geometry" />
        </mxCell>
        <mxCell id="XsQhDETff7rVI9MwzLAx-239" value="RowFightersController" style="swimlane;fontStyle=1;align=center;verticalAlign=top;childLayout=stackLayout;horizontal=1;startSize=26;horizontalStack=0;resizeParent=1;resizeParentMax=0;resizeLast=0;collapsible=1;marginBottom=0;" vertex="1" parent="WIyWlLk6GJQsqaUBKTNV-1">
          <mxGeometry x="650" y="-1444" width="370" height="106" as="geometry" />
        </mxCell>
        <mxCell id="XsQhDETff7rVI9MwzLAx-240" value="- fighterSpawners: List&lt;IRowFighter&gt;" style="text;strokeColor=none;fillColor=none;align=left;verticalAlign=top;spacingLeft=4;spacingRight=4;overflow=hidden;rotatable=0;points=[[0,0.5],[1,0.5]];portConstraint=eastwest;" vertex="1" parent="XsQhDETff7rVI9MwzLAx-239">
          <mxGeometry y="26" width="370" height="24" as="geometry" />
        </mxCell>
        <mxCell id="XsQhDETff7rVI9MwzLAx-241" value="" style="line;strokeWidth=1;fillColor=none;align=left;verticalAlign=middle;spacingTop=-1;spacingLeft=3;spacingRight=3;rotatable=0;labelPosition=right;points=[];portConstraint=eastwest;" vertex="1" parent="XsQhDETff7rVI9MwzLAx-239">
          <mxGeometry y="50" width="370" height="8" as="geometry" />
        </mxCell>
        <mxCell id="XsQhDETff7rVI9MwzLAx-242" value="+AddFighter(IRowFighter fighter)&#xa;)" style="text;strokeColor=none;fillColor=none;align=left;verticalAlign=top;spacingLeft=4;spacingRight=4;overflow=hidden;rotatable=0;points=[[0,0.5],[1,0.5]];portConstraint=eastwest;" vertex="1" parent="XsQhDETff7rVI9MwzLAx-239">
          <mxGeometry y="58" width="370" height="24" as="geometry" />
        </mxCell>
        <mxCell id="XsQhDETff7rVI9MwzLAx-243" value="+RemoveFighterSpawner(IRowFighter fighter)&#xa;)" style="text;strokeColor=none;fillColor=none;align=left;verticalAlign=top;spacingLeft=4;spacingRight=4;overflow=hidden;rotatable=0;points=[[0,0.5],[1,0.5]];portConstraint=eastwest;" vertex="1" parent="XsQhDETff7rVI9MwzLAx-239">
          <mxGeometry y="82" width="370" height="24" as="geometry" />
        </mxCell>
        <mxCell id="XsQhDETff7rVI9MwzLAx-244" value="IRowFighter" style="swimlane;fontStyle=1;align=center;verticalAlign=top;childLayout=stackLayout;horizontal=1;startSize=26;horizontalStack=0;resizeParent=1;resizeParentMax=0;resizeLast=0;collapsible=1;marginBottom=0;" vertex="1" parent="WIyWlLk6GJQsqaUBKTNV-1">
          <mxGeometry x="800" y="-1570" width="370" height="50" as="geometry" />
        </mxCell>
        <mxCell id="XsQhDETff7rVI9MwzLAx-245" value="CellSpawnersComponent" style="swimlane;fontStyle=1;align=center;verticalAlign=top;childLayout=stackLayout;horizontal=1;startSize=26;horizontalStack=0;resizeParent=1;resizeParentMax=0;resizeLast=0;collapsible=1;marginBottom=0;" vertex="1" parent="WIyWlLk6GJQsqaUBKTNV-1">
          <mxGeometry x="280" y="-860" width="400" height="106" as="geometry" />
        </mxCell>
        <mxCell id="XsQhDETff7rVI9MwzLAx-246" value="+&lt;&lt;Get&gt;&gt;  CellContent: ICellContent&#xa;" style="text;strokeColor=none;fillColor=none;align=left;verticalAlign=top;spacingLeft=4;spacingRight=4;overflow=hidden;rotatable=0;points=[[0,0.5],[1,0.5]];portConstraint=eastwest;" vertex="1" parent="XsQhDETff7rVI9MwzLAx-245">
          <mxGeometry y="26" width="400" height="24" as="geometry" />
        </mxCell>
        <mxCell id="XsQhDETff7rVI9MwzLAx-249" value="" style="line;strokeWidth=1;fillColor=none;align=left;verticalAlign=middle;spacingTop=-1;spacingLeft=3;spacingRight=3;rotatable=0;labelPosition=right;points=[];portConstraint=eastwest;" vertex="1" parent="XsQhDETff7rVI9MwzLAx-245">
          <mxGeometry y="50" width="400" height="8" as="geometry" />
        </mxCell>
        <mxCell id="XsQhDETff7rVI9MwzLAx-252" value="+AddContent(ICellContent content): Bool&#xa;" style="text;strokeColor=none;fillColor=none;align=left;verticalAlign=top;spacingLeft=4;spacingRight=4;overflow=hidden;rotatable=0;points=[[0,0.5],[1,0.5]];portConstraint=eastwest;" vertex="1" parent="XsQhDETff7rVI9MwzLAx-245">
          <mxGeometry y="58" width="400" height="24" as="geometry" />
        </mxCell>
        <mxCell id="XsQhDETff7rVI9MwzLAx-251" value="+RemoveContent(ICellContent content): Bool&#xa;" style="text;strokeColor=none;fillColor=none;align=left;verticalAlign=top;spacingLeft=4;spacingRight=4;overflow=hidden;rotatable=0;points=[[0,0.5],[1,0.5]];portConstraint=eastwest;" vertex="1" parent="XsQhDETff7rVI9MwzLAx-245">
          <mxGeometry y="82" width="400" height="24" as="geometry" />
        </mxCell>
        <mxCell id="XsQhDETff7rVI9MwzLAx-255" value="" style="endArrow=open;endFill=1;endSize=12;html=1;rounded=0;" edge="1" parent="WIyWlLk6GJQsqaUBKTNV-1" source="XsQhDETff7rVI9MwzLAx-245">
          <mxGeometry width="160" relative="1" as="geometry">
            <mxPoint x="759.9999999999991" y="-962" as="sourcePoint" />
            <mxPoint x="680" y="-1090" as="targetPoint" />
          </mxGeometry>
        </mxCell>
        <mxCell id="XsQhDETff7rVI9MwzLAx-257" value="" style="endArrow=open;endFill=1;endSize=12;html=1;rounded=0;exitX=0;exitY=0.5;exitDx=0;exitDy=0;entryX=0.305;entryY=1.021;entryDx=0;entryDy=0;entryPerimeter=0;" edge="1" parent="WIyWlLk6GJQsqaUBKTNV-1" source="XsQhDETff7rVI9MwzLAx-213" target="XsQhDETff7rVI9MwzLAx-251">
          <mxGeometry width="160" relative="1" as="geometry">
            <mxPoint x="769.9999999999991" y="-952" as="sourcePoint" />
            <mxPoint x="840" y="-995" as="targetPoint" />
          </mxGeometry>
        </mxCell>
        <mxCell id="XsQhDETff7rVI9MwzLAx-258" value="SpawnersDragController" style="swimlane;fontStyle=1;align=center;verticalAlign=top;childLayout=stackLayout;horizontal=1;startSize=26;horizontalStack=0;resizeParent=1;resizeParentMax=0;resizeLast=0;collapsible=1;marginBottom=0;" vertex="1" parent="WIyWlLk6GJQsqaUBKTNV-1">
          <mxGeometry x="-171" y="-1058" width="370" height="106" as="geometry" />
        </mxCell>
        <mxCell id="XsQhDETff7rVI9MwzLAx-262" value="" style="line;strokeWidth=1;fillColor=none;align=left;verticalAlign=middle;spacingTop=-1;spacingLeft=3;spacingRight=3;rotatable=0;labelPosition=right;points=[];portConstraint=eastwest;" vertex="1" parent="XsQhDETff7rVI9MwzLAx-258">
          <mxGeometry y="26" width="370" height="8" as="geometry" />
        </mxCell>
        <mxCell id="XsQhDETff7rVI9MwzLAx-263" value="- OnInputDown(Vector3 position) : void" style="text;strokeColor=none;fillColor=none;align=left;verticalAlign=top;spacingLeft=4;spacingRight=4;overflow=hidden;rotatable=0;points=[[0,0.5],[1,0.5]];portConstraint=eastwest;" vertex="1" parent="XsQhDETff7rVI9MwzLAx-258">
          <mxGeometry y="34" width="370" height="24" as="geometry" />
        </mxCell>
        <mxCell id="XsQhDETff7rVI9MwzLAx-264" value="- OnInputUpdate(Vector3 position) : void" style="text;strokeColor=none;fillColor=none;align=left;verticalAlign=top;spacingLeft=4;spacingRight=4;overflow=hidden;rotatable=0;points=[[0,0.5],[1,0.5]];portConstraint=eastwest;" vertex="1" parent="XsQhDETff7rVI9MwzLAx-258">
          <mxGeometry y="58" width="370" height="24" as="geometry" />
        </mxCell>
        <mxCell id="XsQhDETff7rVI9MwzLAx-265" value="- OnInputUp(Vector3 position) : void" style="text;strokeColor=none;fillColor=none;align=left;verticalAlign=top;spacingLeft=4;spacingRight=4;overflow=hidden;rotatable=0;points=[[0,0.5],[1,0.5]];portConstraint=eastwest;" vertex="1" parent="XsQhDETff7rVI9MwzLAx-258">
          <mxGeometry y="82" width="370" height="24" as="geometry" />
        </mxCell>
        <mxCell id="XsQhDETff7rVI9MwzLAx-266" value="" style="endArrow=open;endFill=1;endSize=12;html=1;rounded=0;entryX=0.75;entryY=1;entryDx=0;entryDy=0;" edge="1" parent="WIyWlLk6GJQsqaUBKTNV-1" source="XsQhDETff7rVI9MwzLAx-258" target="XsQhDETff7rVI9MwzLAx-267">
          <mxGeometry width="160" relative="1" as="geometry">
            <mxPoint x="-390" y="-1336.9999999999998" as="sourcePoint" />
            <mxPoint x="-480" y="-1166.0000000000002" as="targetPoint" />
          </mxGeometry>
        </mxCell>
        <mxCell id="XsQhDETff7rVI9MwzLAx-267" value="IDragable" style="swimlane;fontStyle=1;align=center;verticalAlign=top;childLayout=stackLayout;horizontal=1;startSize=26;horizontalStack=0;resizeParent=1;resizeParentMax=0;resizeLast=0;collapsible=1;marginBottom=0;" vertex="1" parent="WIyWlLk6GJQsqaUBKTNV-1">
          <mxGeometry x="-290" y="-1219" width="370" height="50" as="geometry" />
        </mxCell>
        <mxCell id="XsQhDETff7rVI9MwzLAx-270" value="" style="endArrow=block;dashed=1;endFill=0;endSize=12;html=1;rounded=0;entryX=0.343;entryY=1.021;entryDx=0;entryDy=0;entryPerimeter=0;exitX=0.389;exitY=-0.012;exitDx=0;exitDy=0;exitPerimeter=0;" edge="1" parent="WIyWlLk6GJQsqaUBKTNV-1" source="XsQhDETff7rVI9MwzLAx-227" target="XsQhDETff7rVI9MwzLAx-224">
          <mxGeometry width="160" relative="1" as="geometry">
            <mxPoint x="130" y="-1310" as="sourcePoint" />
            <mxPoint x="290" y="-1310" as="targetPoint" />
          </mxGeometry>
        </mxCell>
        <mxCell id="XsQhDETff7rVI9MwzLAx-271" value="" style="endArrow=block;dashed=1;endFill=0;endSize=12;html=1;rounded=0;exitX=0;exitY=0;exitDx=0;exitDy=0;" edge="1" parent="WIyWlLk6GJQsqaUBKTNV-1" source="XsQhDETff7rVI9MwzLAx-227" target="XsQhDETff7rVI9MwzLAx-267">
          <mxGeometry width="160" relative="1" as="geometry">
            <mxPoint x="129.99999999999937" y="-1276" as="sourcePoint" />
            <mxPoint x="132.97999999999985" y="-1413.936" as="targetPoint" />
          </mxGeometry>
        </mxCell>
        <mxCell id="XsQhDETff7rVI9MwzLAx-273" value="" style="endArrow=block;dashed=1;endFill=0;endSize=12;html=1;rounded=0;entryX=0.851;entryY=0.01;entryDx=0;entryDy=0;entryPerimeter=0;exitX=1;exitY=0.5;exitDx=0;exitDy=0;" edge="1" parent="WIyWlLk6GJQsqaUBKTNV-1" source="XsQhDETff7rVI9MwzLAx-232" target="XsQhDETff7rVI9MwzLAx-214">
          <mxGeometry width="160" relative="1" as="geometry">
            <mxPoint x="343.9299999999994" y="-1281.56" as="sourcePoint" />
            <mxPoint x="346.90999999999985" y="-1419.4959999999999" as="targetPoint" />
          </mxGeometry>
        </mxCell>
      </root>
    </mxGraphModel>
  </diagram>
</mxfile>
